<?xml version="1.0" encoding="UTF-8" standalone="no"?>
<!-- Created with Inkscape (http://www.inkscape.org/) -->

<svg
   xmlns:dc="http://purl.org/dc/elements/1.1/"
   xmlns:cc="http://creativecommons.org/ns#"
   xmlns:rdf="http://www.w3.org/1999/02/22-rdf-syntax-ns#"
   xmlns:svg="http://www.w3.org/2000/svg"
   xmlns="http://www.w3.org/2000/svg"
   xmlns:sodipodi="http://sodipodi.sourceforge.net/DTD/sodipodi-0.dtd"
   xmlns:inkscape="http://www.inkscape.org/namespaces/inkscape"
   id="svg9919"
   version="1.1"
   inkscape:version="0.48.2 r9819"
   width="18"
   height="16.044729"
   sodipodi:docname="flz.svg">
  <metadata
     id="metadata9925">
    <rdf:RDF>
      <cc:Work
         rdf:about="">
        <dc:format>image/svg+xml</dc:format>
        <dc:type
           rdf:resource="http://purl.org/dc/dcmitype/StillImage" />
        <dc:title />
      </cc:Work>
    </rdf:RDF>
  </metadata>
  <defs
     id="defs9923" />
  <sodipodi:namedview
     pagecolor="#ffffff"
     bordercolor="#666666"
     borderopacity="1"
     objecttolerance="10"
     gridtolerance="10"
     guidetolerance="10"
     inkscape:pageopacity="0"
     inkscape:pageshadow="2"
     inkscape:window-width="1504"
     inkscape:window-height="853"
     id="namedview9921"
     showgrid="false"
     inkscape:zoom="2.1649824"
     inkscape:cx="62.07364"
     inkscape:cy="-49.686886"
     inkscape:window-x="0"
     inkscape:window-y="33"
     inkscape:window-maximized="0"
     inkscape:current-layer="svg9919"
     fit-margin-top="0"
     fit-margin-left="0"
     fit-margin-right="0"
     fit-margin-bottom="0" />
  <g
     style="font-size:72px;font-style:normal;font-variant:normal;font-weight:normal;font-stretch:normal;line-height:125%;letter-spacing:0px;word-spacing:0px;fill:#ffffff;fill-opacity:1;stroke:none;font-family:EngraverFontSet;-inkscape-font-specification:EngraverFontSet"
     id="text3259"
     transform="matrix(0.79872204,0,0,0.79872204,15.347303,1.371426)">
    <path
       d="m 3.3211771,1.0189746 -14.4720001,12.3840004 1.2960001,-0.576 c 0.8639947,-0.383996 1.583994,-0.551996 2.16,-0.504 0.7199927,0.048 1.8239916,0.384004 3.312,1.008 1.4879886,0.576003 2.4239877,0.864003 2.808,0.864 0.4799868,3e-6 0.71998658,-0.287997 0.72000004,-0.864 -1.346e-5,-0.143996 -0.26401324,-0.407996 -0.79200004,-0.792 -0.5280121,-0.383995 -0.7920118,-0.719995 -0.792,-1.008 0.047988,-0.815994 0.5759876,-1.223994 1.58400004,-1.224 1.96798456,6e-6 2.95198356,1.056005 2.95199996,3.168 -1.64e-5,1.296002 -0.5520158,2.448001 -1.65599996,3.456 -1.10401366,0.959999 -2.32801244,1.439998 -3.67200004,1.44 -1.1520099,-2e-6 -3.024008,-0.648001 -5.616,-1.944 -1.0560044,-0.527999 -1.9680031,-0.791999 -2.7360001,-0.792 -0.960002,10e-7 -2.136,0.504001 -3.528,1.512 l -4.104,0 17.7840001,-15.4080004 -8.568,0 c -0.5280041,0.1440152 -0.9120031,0.5520148 -1.1520001,1.224 l -1.872,0 2.016,-4.68 14.3280001,0 0,2.736"
       id="path3264"
       inkscape:connector-curvature="0"
       style="fill:#ffffff;fill-opacity:1" />
  </g>
</svg>
