<?xml version="1.0" encoding="UTF-8" standalone="no"?>
<!-- Created with Inkscape (http://www.inkscape.org/) -->

<svg
   xmlns:dc="http://purl.org/dc/elements/1.1/"
   xmlns:cc="http://creativecommons.org/ns#"
   xmlns:rdf="http://www.w3.org/1999/02/22-rdf-syntax-ns#"
   xmlns:svg="http://www.w3.org/2000/svg"
   xmlns="http://www.w3.org/2000/svg"
   xmlns:sodipodi="http://sodipodi.sourceforge.net/DTD/sodipodi-0.dtd"
   xmlns:inkscape="http://www.inkscape.org/namespaces/inkscape"
   id="svg9919"
   version="1.1"
   inkscape:version="0.48.2 r9819"
   width="17"
   height="17.098267"
   sodipodi:docname="harmonic.svg">
  <metadata
     id="metadata9925">
    <rdf:RDF>
      <cc:Work
         rdf:about="">
        <dc:format>image/svg+xml</dc:format>
        <dc:type
           rdf:resource="http://purl.org/dc/dcmitype/StillImage" />
        <dc:title />
      </cc:Work>
    </rdf:RDF>
  </metadata>
  <defs
     id="defs9923" />
  <sodipodi:namedview
     pagecolor="#ffffff"
     bordercolor="#666666"
     borderopacity="1"
     objecttolerance="10"
     gridtolerance="10"
     guidetolerance="10"
     inkscape:pageopacity="0"
     inkscape:pageshadow="2"
     inkscape:window-width="1015"
     inkscape:window-height="706"
     id="namedview9921"
     showgrid="false"
     inkscape:zoom="2.1649824"
     inkscape:cx="42.858819"
     inkscape:cy="-55.52986"
     inkscape:window-x="690"
     inkscape:window-y="268"
     inkscape:window-maximized="0"
     inkscape:current-layer="svg9919"
     fit-margin-top="0"
     fit-margin-left="0"
     fit-margin-right="0"
     fit-margin-bottom="0" />
  <g
     style="font-size:72px;font-style:normal;font-variant:normal;font-weight:normal;font-stretch:normal;line-height:125%;letter-spacing:0px;word-spacing:0px;fill:#ffffff;fill-opacity:1;stroke:none;font-family:EngraverFontSet;-inkscape-font-specification:EngraverFontSet"
     id="text3233"
     transform="matrix(1.3648041,0,0,1.3648041,-9.2594629,-40.887005)">
    <path
       d="m 19.240463,36.222149 c -1.2e-5,1.727998 -0.600012,3.191997 -1.8,4.392 -1.200009,1.247994 -2.664008,1.871994 -4.392,1.872 -1.728004,-6e-6 -3.2160029,-0.624006 -4.464,-1.872 -1.2000005,-1.200003 -1.7999999,-2.664002 -1.8,-4.392 1e-7,-1.727998 0.5999995,-3.191997 1.8,-4.392 1.2479971,-1.247994 2.735996,-1.871994 4.464,-1.872 1.727992,6e-6 3.191991,0.624006 4.392,1.872 1.199988,1.200003 1.799988,2.664002 1.8,4.392 m -1.296,0 c -1.1e-5,-1.343999 -0.480011,-2.495998 -1.44,-3.456 -0.960009,-0.959996 -2.112007,-1.439995 -3.456,-1.44 -1.392005,5e-6 -2.592004,0.480004 -3.6,1.44 -0.9600016,0.912002 -1.4400011,2.064001 -1.44,3.456 -1.1e-6,1.391999 0.4799984,2.543997 1.44,3.456 1.007996,0.959995 2.207995,1.439995 3.6,1.44 1.343993,-5e-6 2.495991,-0.480005 3.456,-1.44 0.959989,-0.960003 1.439989,-2.112001 1.44,-3.456"
       id="path3238"
       inkscape:connector-curvature="0"
       style="fill:#ffffff;fill-opacity:1" />
  </g>
</svg>
