<?xml version="1.0" encoding="UTF-8" standalone="no"?>
<!-- Created with Inkscape (http://www.inkscape.org/) -->

<svg
   xmlns:dc="http://purl.org/dc/elements/1.1/"
   xmlns:cc="http://creativecommons.org/ns#"
   xmlns:rdf="http://www.w3.org/1999/02/22-rdf-syntax-ns#"
   xmlns:svg="http://www.w3.org/2000/svg"
   xmlns="http://www.w3.org/2000/svg"
   xmlns:sodipodi="http://sodipodi.sourceforge.net/DTD/sodipodi-0.dtd"
   xmlns:inkscape="http://www.inkscape.org/namespaces/inkscape"
   id="svg9919"
   version="1.1"
   inkscape:version="0.48.2 r9819"
   width="18"
   height="17.066038"
   sodipodi:docname="trill.svg">
  <metadata
     id="metadata9925">
    <rdf:RDF>
      <cc:Work
         rdf:about="">
        <dc:format>image/svg+xml</dc:format>
        <dc:type
           rdf:resource="http://purl.org/dc/dcmitype/StillImage" />
        <dc:title />
      </cc:Work>
    </rdf:RDF>
  </metadata>
  <defs
     id="defs9923" />
  <sodipodi:namedview
     pagecolor="#ffffff"
     bordercolor="#666666"
     borderopacity="1"
     objecttolerance="10"
     gridtolerance="10"
     guidetolerance="10"
     inkscape:pageopacity="0"
     inkscape:pageshadow="2"
     inkscape:window-width="1504"
     inkscape:window-height="853"
     id="namedview9921"
     showgrid="false"
     inkscape:zoom="2.1649824"
     inkscape:cx="69.042979"
     inkscape:cy="-48.495906"
     inkscape:window-x="263"
     inkscape:window-y="165"
     inkscape:window-maximized="0"
     inkscape:current-layer="svg9919"
     fit-margin-top="0"
     fit-margin-left="0"
     fit-margin-right="0"
     fit-margin-bottom="0" />
  <g
     style="font-size:72px;font-style:normal;font-variant:normal;font-weight:normal;font-stretch:normal;line-height:125%;letter-spacing:0px;word-spacing:0px;fill:#ffffff;fill-opacity:1;stroke:none;font-family:EngraverFontSet;-inkscape-font-specification:EngraverFontSet"
     id="text3181"
     transform="matrix(0.58962265,0,0,0.58962265,3.5404881,8.3257755)">
    <path
       d="m 15.883332,-1.7365152 c 0.04798,-1.1039839 0.599978,-2.039983 1.656,-2.808 1.055976,-0.7679815 2.159975,-1.1519811 3.312,-1.152 2.447971,1.89e-5 3.67197,1.2000177 3.672,3.6 -3e-5,0.5280148 -0.16803,1.0320143 -0.504,1.51199999 -0.336029,0.48001334 -0.768029,0.69601312 -1.296,0.648 -1.152027,-0.14398668 -1.728027,-0.79198604 -1.728,-1.94399999 -2.7e-5,-1.6319833 -0.384026,-2.4479824 -1.152,-2.448 -0.912025,1.76e-5 -1.824024,0.9120166 -2.736,2.736 l -4.464,15.2640002 -4.3199998,0 1.08,-3.8880002 c 0.2879843,0.8160022 -0.9360144,1.8720012 -3.672,3.1680002 -2.688009,1.247999 -4.704007,1.871998 -6.04799996,1.872 -2.49600324,-2e-6 -3.74400194,-0.720001 -3.74400004,-2.16 -1.9e-6,-0.383999 0.2399979,-1.367998 0.72,-2.9520002 l 3.60000004,-11.88 -6.26400004,0 1.008,-2.664 6.192,0 1.944,-6.5519998 5.184,-2.736 -2.736,9.2879998 3.6,-0.36 c 2.1119828,-0.1919814 3.6239808,-0.1439814 4.5359998,0.144 1.535979,0.4320178 2.255978,1.5360167 2.16,3.312 m -11.2319998,-0.36 -2.736,9.216 c -0.5280074,1.7760043 -0.7920071,2.7840033 -0.792,3.0240002 -7.1e-6,1.248002 0.4319925,1.872001 1.296,1.872 0.9119907,10e-7 2.4479892,-0.599998 4.608,-1.8 C 9.235317,9.015489 10.243316,8.1994898 10.051332,7.7674848 l 2.592,-8.64000001 c 0.04798,-0.23998569 0.07198,-0.45598539 0.072,-0.64799999 -1.8e-5,-0.8159844 -0.624018,-1.295984 -1.872,-1.44 -0.672016,-0.095984 -1.7520149,-0.071984 -3.2399998,0.072 -1.6800119,0.1920159 -2.6640109,0.4560157 -2.952,0.792"
       id="path3186"
       inkscape:connector-curvature="0"
       style="fill:#ffffff;fill-opacity:1" />
  </g>
</svg>
